<svg width="51" height="50" viewBox="0 0 51 50" fill="none" xmlns="http://www.w3.org/2000/svg">
<circle cx="25.8333" cy="25" r="25" fill="#CD1212"/>
<g clip-path="url(#clip0_140_71)">
<path d="M26.3333 20.362L28.8083 17.336C28.8083 17.336 33.0533 17.426 37.2793 19.39C36.1973 21.026 34.0483 21.828 34.0483 21.828C33.9023 20.389 32.8943 20.038 29.6943 20.038L26.3333 39L22.9523 20.034C19.7723 20.034 18.7643 20.388 18.6173 21.826C18.6173 21.826 16.4713 21.031 15.3883 19.396C19.6133 17.431 23.8583 17.34 23.8583 17.34L26.3333 20.362ZM26.3333 20.362L26.3293 20.364H26.3333V20.362ZM26.3333 16.463C29.7483 16.433 33.6593 16.991 37.6613 18.743C38.1963 17.775 38.3333 17.348 38.3333 17.348C33.9583 15.612 29.8613 15.015 26.3333 15C22.8053 15.015 18.7083 15.61 14.3333 17.349C14.3333 17.349 14.5283 17.874 15.0053 18.745C19.0073 16.989 22.9183 16.435 26.3333 16.46V16.463Z" fill="white"/>
</g>
<defs>
<clipPath id="clip0_140_71">
<rect width="24" height="24" fill="white" transform="translate(14.3333 15)"/>
</clipPath>
</defs>
</svg>
