<svg width="486" height="316" viewBox="0 0 486 316" fill="none" xmlns="http://www.w3.org/2000/svg">
<mask id="mask0_9_305" style="mask-type:alpha" maskUnits="userSpaceOnUse" x="0" y="0" width="486" height="316">
<rect width="486" height="315.753" rx="15.2609" fill="#ED713C"/>
</mask>
<g mask="url(#mask0_9_305)">
<path d="M348.128 35.8558C350.339 59.7511 381.209 76.4951 404.854 77.4543C432.101 78.5568 443.171 58.4276 463.652 65.8238C482.342 72.5664 482.671 92.7874 496.452 96.7074C509.116 100.309 529.811 89.1999 565.484 30.6425" stroke="white" stroke-opacity="0.08" stroke-width="0.703152" stroke-miterlimit="10"/>
<path d="M564.011 27.8562C528.778 85.563 508.053 97.1428 495.186 94.0717C485.65 91.7817 482.329 81.794 475.112 73.74C471.514 69.6004 467.013 66.4655 462.013 64.6169C445.634 58.5477 435.305 69.4927 417.396 73.4681C412.83 74.4959 408.162 74.9489 403.487 74.8178C379.731 74.2343 349.134 59.5156 346.403 36.4584" stroke="white" stroke-opacity="0.08" stroke-width="0.703152" stroke-miterlimit="10"/>
<path d="M562.535 25.0766C527.741 81.9288 506.998 93.9753 493.956 91.4324C484.369 89.5623 480.81 80.0296 473.562 72.3637C469.869 68.361 465.372 65.2987 460.414 63.4103C444.278 57.268 433.997 67.0749 416.035 70.8177C411.469 71.779 406.819 72.2346 402.157 72.1773C378.289 71.8914 347.965 59.2799 344.715 37.0607" stroke="white" stroke-opacity="0.08" stroke-width="0.703152" stroke-miterlimit="10"/>
<path d="M561.062 22.3042C526.715 78.29 505.943 90.7986 492.71 88.7953C483.064 87.3364 479.283 78.2678 471.993 70.9854C468.213 67.1222 463.724 64.131 458.811 62.2025C442.902 55.986 432.704 64.6609 414.669 68.166C410.102 69.0714 405.463 69.5337 400.81 69.5471C376.832 69.6041 346.783 59.0546 343.014 37.6734" stroke="white" stroke-opacity="0.08" stroke-width="0.703152" stroke-miterlimit="10"/>
<path d="M559.592 19.5118C525.683 74.6557 504.897 87.6191 491.461 86.1547C481.769 85.1037 477.745 76.498 470.417 69.6115C466.547 65.8858 462.057 62.9623 457.182 60.9939C441.5 54.7034 431.373 62.2415 413.259 65.5125C408.699 66.3513 404.082 66.8153 399.449 66.9004C375.358 67.3001 345.584 58.8086 341.291 38.265" stroke="white" stroke-opacity="0.08" stroke-width="0.703152" stroke-miterlimit="10"/>
<path d="M558.135 16.7343C524.653 71.0279 503.822 84.8425 490.21 83.5247C480.494 82.5955 476.205 74.7633 468.847 68.2402C464.889 64.6584 460.398 61.8027 455.563 59.7923C440.108 53.4276 430.06 59.8293 411.893 62.8638C407.337 63.6465 402.736 64.1161 398.118 64.2699C373.911 65.0287 344.414 58.5828 339.602 38.8728" stroke="white" stroke-opacity="0.08" stroke-width="0.703152" stroke-miterlimit="10"/>
<path d="M556.644 13.9503C523.621 67.3912 502.804 81.2398 488.964 80.9109C479.192 80.627 474.659 72.9991 467.275 66.8602C463.233 63.4237 458.741 60.6343 453.946 58.582C438.717 52.1431 428.736 57.412 410.513 60.2096C405.961 60.9313 401.374 61.404 396.772 61.6258C372.452 62.7273 343.229 58.3558 337.898 39.4712" stroke="white" stroke-opacity="0.08" stroke-width="0.703152" stroke-miterlimit="10"/>
<path d="M555.171 11.1659C522.598 63.758 501.759 78.0693 487.714 78.2506C477.902 78.3913 473.102 71.2701 465.7 65.4871C461.578 62.1991 457.083 59.4772 452.325 57.3868C437.328 50.8699 427.415 54.9977 409.131 57.5705C404.877 58.164 400.338 58.7094 395.424 59.0009C370.986 60.4572 342.043 58.1153 336.192 40.0766" stroke="white" stroke-opacity="0.08" stroke-width="0.703152" stroke-miterlimit="10"/>
<path d="M553.7 8.38198C521.558 60.1205 500.718 74.8548 486.469 75.6243C476.614 76.1526 471.544 69.5378 464.119 64.1187C459.916 60.9809 455.417 58.3211 450.696 56.1838C435.925 49.5927 426.087 52.592 407.739 54.9194C403.468 55.4627 398.941 56.0006 394.062 56.3637C369.541 58.1726 340.858 57.8799 334.488 40.6828" stroke="white" stroke-opacity="0.08" stroke-width="0.703152" stroke-miterlimit="10"/>
<path d="M552.223 5.60378C520.524 56.4894 499.675 71.6505 485.219 72.9793C475.326 73.8913 469.965 67.7984 462.557 62.7411C458.279 59.7555 453.775 57.1565 449.092 54.972C434.545 48.3064 424.778 50.1689 406.369 52.2797C402.099 52.7739 397.569 53.3116 392.726 53.7423C368.062 55.9212 339.671 57.6712 332.781 41.3075" stroke="white" stroke-opacity="0.08" stroke-width="0.703152" stroke-miterlimit="10"/>
<path d="M550.751 2.82048C519.495 52.8577 498.633 68.4373 483.98 70.3467C474.049 71.6383 468.412 66.0762 460.991 61.3627C456.639 58.5353 452.126 55.9985 447.481 53.7674C433.164 47.0276 423.468 47.7573 404.996 49.6103C400.709 50.0462 396.19 50.5886 391.387 51.083C366.609 53.6334 338.498 57.4175 331.08 41.8909" stroke="white" stroke-opacity="0.08" stroke-width="0.703152" stroke-miterlimit="10"/>
<path d="M549.278 0.0389084C518.461 49.2237 497.583 65.2258 482.721 67.7151C472.749 69.3821 466.832 64.3588 459.413 59.99C455.148 57.4804 450.78 54.9448 445.853 52.564C431.764 45.754 422.139 45.3425 403.606 46.9626C399.31 47.3446 394.798 47.8916 390.024 48.4491C365.13 51.371 337.296 57.1891 329.363 42.4961" stroke="white" stroke-opacity="0.08" stroke-width="0.703152" stroke-miterlimit="10"/>
<path d="M547.806 -2.74377C517.428 45.5766 496.56 62.007 481.475 65.0795C471.461 67.1261 465.252 62.6492 457.839 58.617C453.465 56.2369 449.083 53.766 444.234 51.3606C430.372 44.4639 420.822 42.9318 402.224 44.3146C397.919 44.6387 393.411 45.19 388.684 45.8157C363.679 49.1176 336.117 56.9616 327.665 43.102" stroke="white" stroke-opacity="0.08" stroke-width="0.703152" stroke-miterlimit="10"/>
<path d="M546.343 -5.52605C516.399 41.9585 495.496 58.7821 480.23 62.4444C470.174 64.8582 463.672 60.9442 456.266 57.2404C451.779 54.9978 447.386 52.5878 442.631 50.1544C428.992 43.1952 419.521 40.514 400.844 41.6587C396.525 41.9328 392.029 42.4888 387.338 43.1741C362.217 46.864 334.931 56.7344 325.96 43.7081" stroke="white" stroke-opacity="0.08" stroke-width="0.703152" stroke-miterlimit="10"/>
<path d="M544.858 -8.30527C515.365 38.3284 494.458 55.5511 478.979 59.8139C468.878 62.599 462.087 59.2522 454.696 55.8731C450.094 53.772 445.684 51.4143 440.996 48.9555C427.591 41.9222 418.184 38.1072 399.461 39.0156C394.946 39.2846 390.448 39.7991 385.985 40.5573C360.757 44.6153 333.733 56.4994 324.253 44.3193" stroke="white" stroke-opacity="0.08" stroke-width="0.703152" stroke-miterlimit="10"/>
<path d="M543.386 -11.0873C514.331 34.6951 493.389 52.332 477.744 57.1856C467.598 60.338 460.514 57.5663 453.118 54.5028C448.402 52.5473 443.983 50.2423 439.377 47.7548C426.195 40.6467 416.862 35.6942 398.087 36.37C393.578 36.5771 389.088 37.0927 384.646 37.9136C359.296 42.3925 332.557 56.2755 322.542 44.9442" stroke="white" stroke-opacity="0.08" stroke-width="0.703152" stroke-miterlimit="10"/>
<path d="M541.914 -13.868C513.302 31.0679 492.321 49.0862 476.482 54.558C466.298 58.07 458.917 55.8898 451.547 53.1395C446.718 51.3337 442.289 49.0689 437.761 46.5567C424.809 39.3741 415.544 33.2875 396.697 33.7255C392.194 33.8762 387.711 34.3971 383.29 35.2835C357.84 40.1433 331.37 56.0495 320.836 45.5392" stroke="white" stroke-opacity="0.08" stroke-width="0.703152" stroke-miterlimit="10"/>
<path d="M540.437 -16.6456C512.267 27.4359 491.281 45.8756 475.231 51.9503C464.991 55.8302 457.327 54.246 449.972 51.7953C445.013 50.1462 440.586 47.9218 436.136 45.3799C423.411 38.1286 414.221 30.8937 395.309 31.0944C390.812 31.1913 386.336 31.7176 381.935 32.6671C356.376 37.9296 330.174 55.8523 319.12 46.1727" stroke="white" stroke-opacity="0.08" stroke-width="0.703152" stroke-miterlimit="10"/>
<path d="M538.966 -19.4268C511.252 23.8375 490.22 42.6516 473.98 49.3266C463.69 53.567 455.744 52.5874 448.397 50.4238C443.335 48.9206 438.879 46.7431 434.515 44.1761C422.016 36.8396 412.897 28.4718 393.923 28.4475C389.433 28.4904 384.963 29.0223 380.582 30.0349C354.914 35.7045 328.962 55.6237 317.406 46.7888" stroke="white" stroke-opacity="0.08" stroke-width="0.703152" stroke-miterlimit="10"/>
<path d="M537.494 -22.2039C510.202 20.2197 489.154 39.4306 472.731 46.7354C462.384 51.3401 454.158 50.9741 446.818 49.106C441.64 47.7851 437.18 45.6189 432.891 43.0179C420.622 35.6048 411.573 26.0991 392.534 25.8288C388.051 25.8157 383.586 26.3533 379.228 27.4311C353.453 33.5205 327.784 55.4558 315.69 47.4437" stroke="white" stroke-opacity="0.08" stroke-width="0.703152" stroke-miterlimit="10"/>
<path d="M536.018 -24.9784C509.167 16.6044 488.088 36.1866 471.492 44.1303C461.092 49.0916 452.591 49.348 445.259 47.7634C439.966 46.6208 435.492 44.4737 431.285 41.8557C419.239 34.3613 410.261 23.7131 391.161 23.2092C386.683 23.1442 382.221 23.6875 377.883 24.826C352.02 31.3693 326.603 55.2585 313.981 48.0869" stroke="white" stroke-opacity="0.08" stroke-width="0.703152" stroke-miterlimit="10"/>
<path d="M534.55 -27.7561C491.69 38.3696 462.766 49.8269 443.666 46.4192C422.815 42.6997 415.623 21.5812 389.757 20.5753C359.415 19.3998 327.619 56.1381 312.257 48.7269" stroke="white" stroke-opacity="0.08" stroke-width="0.703152" stroke-miterlimit="10"/>
<path d="M-33.6001 95.2081C63.922 130.463 97.2013 169.344 109.262 198.839C122.721 231.757 115.78 267.735 130.309 269.969C139.612 271.4 151.059 257.966 172.402 228.515C237.121 139.212 238.587 115.496 266.16 109.341C304.787 100.712 328.599 141.306 387.974 140.431C431.583 139.787 466.871 117.185 490.655 97.0934" stroke="white" stroke-opacity="0.07" stroke-width="0.63587" stroke-miterlimit="10"/>
<path d="M-35.9434 98.7523C58.8329 133.249 94.0236 171.041 107.041 198.684C121.587 229.576 114.717 263.696 129.095 265.309C138.339 266.348 149.571 253.143 170.186 224.702C232.837 138.283 234.781 114.272 262.142 108.42C300.993 100.229 323.767 143.76 383.771 144.352C385.08 144.365 386.368 144.365 387.657 144.339C430.231 143.464 466.022 120.851 490.315 100.883" stroke="white" stroke-opacity="0.07" stroke-width="0.63587" stroke-miterlimit="10"/>
<path d="M-38.2773 102.295C53.7457 136.029 90.8204 172.669 104.828 198.526C120.439 227.347 113.667 259.651 127.889 260.646C137.076 261.29 148.095 248.314 167.977 220.884C228.547 137.354 230.957 112.97 258.137 107.499C297.177 99.6396 318.959 146.233 379.581 148.273C380.911 148.318 382.237 148.363 383.563 148.358C426.84 148.181 464.492 125.101 489.984 104.673" stroke="white" stroke-opacity="0.07" stroke-width="0.63587" stroke-miterlimit="10"/>
<path d="M-40.6177 105.839C48.6653 138.821 87.5657 174.221 102.609 198.37C119.243 225.072 112.617 255.605 126.677 255.984C135.811 256.231 146.603 243.489 165.763 217.068C224.259 136.418 227.146 111.713 254.126 106.579C293.374 99.1108 314.154 148.726 375.386 152.195C376.745 152.273 378.103 152.347 379.456 152.379C423.434 153.416 462.949 129.354 489.641 108.467" stroke="white" stroke-opacity="0.07" stroke-width="0.63587" stroke-miterlimit="10"/>
<path d="M-42.9551 109.384C43.582 141.603 84.2486 175.69 100.393 198.213C117.981 222.752 111.577 251.554 125.469 251.321C134.553 251.17 145.121 238.662 163.554 213.252C219.973 135.486 223.339 110.46 250.119 105.661C289.586 98.5873 309.357 151.238 371.194 156.122C372.582 156.229 373.972 156.337 375.366 156.403C420.041 158.381 461.42 133.61 489.315 112.258" stroke="white" stroke-opacity="0.07" stroke-width="0.63587" stroke-miterlimit="10"/>
<path d="M-45.2949 112.929C38.4977 144.387 80.8447 177.071 98.1777 198.056C116.621 220.388 110.534 247.501 124.262 246.66C133.297 246.106 143.637 233.836 161.343 209.436C215.69 134.555 219.535 109.211 246.112 104.741C285.795 98.0683 304.562 153.767 367.002 160.041C368.421 160.184 369.84 160.329 371.27 160.421C416.642 163.331 459.893 137.86 488.983 116.047" stroke="white" stroke-opacity="0.07" stroke-width="0.63587" stroke-miterlimit="10"/>
<path d="M-47.6318 116.472C33.4135 147.172 77.3318 178.362 95.9586 197.899C115.122 218 109.501 243.441 123.05 241.997C132.04 241.039 142.15 229.006 159.129 205.619C211.401 133.624 215.73 107.964 242.1 103.821C282.009 97.5525 299.764 156.31 362.806 163.963C364.26 164.139 365.705 164.319 367.167 164.441C413.232 168.276 458.354 142.109 488.643 119.837" stroke="white" stroke-opacity="0.07" stroke-width="0.63587" stroke-miterlimit="10"/>
<path d="M-49.9702 120.017C28.3292 149.958 69.3723 182.718 93.7423 197.742C108.502 218.042 108.466 239.376 121.841 237.335C130.786 235.97 140.667 224.183 156.918 201.798C207.115 132.687 211.928 106.716 238.091 102.896C278.225 97.0375 294.967 158.864 358.611 167.88C360.091 168.089 361.572 168.304 363.071 168.457C409.833 173.207 456.83 146.359 488.314 123.623" stroke="white" stroke-opacity="0.07" stroke-width="0.63587" stroke-miterlimit="10"/>
<path d="M-52.3096 123.562C23.2454 152.743 65.3976 184.631 91.525 197.586C106.471 216.083 107.431 235.307 120.631 232.673C129.533 230.898 139.181 219.36 154.705 197.987C202.82 131.761 208.127 105.484 234.083 101.982C274.442 96.539 290.168 161.442 354.417 171.808C355.926 172.052 357.438 172.301 358.973 172.484C406.431 178.143 455.29 150.617 487.979 127.42" stroke="white" stroke-opacity="0.07" stroke-width="0.63587" stroke-miterlimit="10"/>
<path d="M-54.6494 127.104C18.1597 155.526 61.4209 186.539 89.3058 197.428C104.438 214.123 106.395 231.231 119.42 228.01C128.277 225.82 137.695 214.531 152.492 194.169C198.54 130.824 204.328 104.248 230.073 101.062C270.661 96.0388 285.365 164.025 350.222 175.73C351.76 176.007 353.304 176.29 354.874 176.503C403.028 183.066 453.755 154.868 487.644 131.211" stroke="white" stroke-opacity="0.07" stroke-width="0.63587" stroke-miterlimit="10"/>
<path d="M-56.9863 130.648C13.0783 158.311 57.4473 188.45 87.0896 197.27C102.408 212.162 105.359 227.149 118.21 223.346C127.022 220.74 136.212 209.702 150.282 190.355C194.254 129.898 200.532 103.019 226.065 100.144C266.882 95.5478 280.56 166.623 346.029 179.654C347.598 179.967 349.172 180.28 350.775 180.526C399.63 187.985 452.222 159.122 487.31 135.003" stroke="white" stroke-opacity="0.07" stroke-width="0.63587" stroke-miterlimit="10"/>
<path d="M-59.3257 134.194C7.99017 161.097 53.4755 190.362 84.8738 197.11C100.378 210.2 104.32 223.063 116.999 218.681C125.763 215.653 134.726 204.874 148.067 186.532C189.965 128.96 196.733 101.787 222.057 99.2191C263.107 95.0544 275.749 169.221 341.835 183.57C343.434 183.917 345.033 184.264 346.677 184.537C396.233 192.887 450.688 163.365 486.975 138.785" stroke="white" stroke-opacity="0.07" stroke-width="0.63587" stroke-miterlimit="10"/>
<path d="M-61.6636 137.738C2.90783 163.881 49.4965 192.272 82.6565 196.957C98.3469 208.244 103.276 218.978 115.792 214.022C124.505 210.572 133.243 200.05 145.857 182.719C185.686 128.032 192.94 100.568 218.047 98.3024C259.33 94.5779 270.931 171.842 337.642 187.496C339.269 187.878 340.906 188.256 342.585 188.564C392.844 197.797 449.16 167.628 486.646 142.582" stroke="white" stroke-opacity="0.07" stroke-width="0.63587" stroke-miterlimit="10"/>
<path d="M-63.998 141.282C-2.17691 166.666 45.5208 194.182 80.4398 196.798C96.3148 206.282 102.228 214.888 114.582 209.359C123.243 205.484 131.758 195.224 143.646 178.903C181.395 127.1 189.145 99.3459 214.038 97.3822C255.556 94.1033 266.108 174.47 333.447 191.418C335.104 191.835 336.773 192.245 338.483 192.585C389.447 202.703 447.622 171.876 486.316 146.373" stroke="white" stroke-opacity="0.07" stroke-width="0.63587" stroke-miterlimit="10"/>
<path d="M-66.3403 144.827C-7.26217 169.452 41.5461 196.095 78.2225 196.643C94.2836 204.325 101.177 210.797 113.373 204.696C121.977 200.394 130.274 190.397 141.427 175.085C177.102 126.167 185.343 98.1328 210.023 96.4622C251.775 93.6353 261.273 177.093 329.247 195.34C330.933 195.792 332.634 196.233 334.377 196.605C386.052 207.601 446.082 176.127 485.968 150.163" stroke="white" stroke-opacity="0.07" stroke-width="0.63587" stroke-miterlimit="10"/>
<path d="M-68.6777 148.37C-12.3455 172.236 37.5719 198.005 76.0057 196.485C92.2543 202.365 100.121 206.702 112.165 200.035C120.709 195.304 128.79 185.571 139.224 171.27C172.823 125.237 181.555 96.9227 206.022 95.543C248.009 93.1756 256.445 179.734 325.061 199.257C326.776 199.745 328.509 200.217 330.294 200.62C382.672 212.497 444.556 180.381 485.641 153.959" stroke="white" stroke-opacity="0.07" stroke-width="0.63587" stroke-miterlimit="10"/>
<path d="M-71.0176 151.915C-17.4298 175.021 33.5953 199.912 73.788 196.329C90.214 200.409 99.0593 202.607 110.954 195.373C119.435 190.214 127.305 180.745 137.01 167.458C168.535 124.31 177.758 95.7198 202.012 94.629C244.233 92.7286 251.603 182.383 320.866 203.19C322.611 203.714 324.375 204.216 326.188 204.651C379.287 217.389 443.026 184.633 485.306 157.747" stroke="white" stroke-opacity="0.07" stroke-width="0.63587" stroke-miterlimit="10"/>
<path d="M-73.3555 155.463C-22.5135 177.81 29.6207 201.831 71.5708 196.176C88.1901 198.451 97.9947 198.516 109.743 190.715C118.159 185.132 125.82 175.924 134.798 163.642C164.248 123.38 173.963 94.5163 198.003 93.7089C240.459 92.2788 246.756 185.027 316.673 207.106C318.445 207.666 320.244 208.198 322.09 208.666C375.909 222.276 441.489 188.884 484.973 161.532" stroke="white" stroke-opacity="0.07" stroke-width="0.63587" stroke-miterlimit="10"/>
<path d="M-75.6948 159.006C-27.6002 180.587 25.0922 190.257 69.3535 196.015C85.9161 198.17 96.9259 194.416 108.533 186.048C116.881 180.036 124.335 171.092 132.586 159.821C159.961 122.442 170.165 93.3118 193.993 92.7847C236.68 91.8409 241.9 187.681 312.478 211.031C314.277 211.626 316.112 212.189 317.99 212.689C372.528 227.165 439.949 193.138 484.638 165.329" stroke="white" stroke-opacity="0.07" stroke-width="0.63587" stroke-miterlimit="10"/>
<path d="M-78.0337 162.549C-32.6806 183.378 20.6673 202.626 67.1368 195.86C83.8999 193.418 95.8531 190.323 107.324 181.387C115.601 174.945 122.85 166.268 130.374 156.006C155.676 121.512 166.367 92.1176 189.984 91.8675C232.901 91.4122 237.039 190.34 308.283 214.955C310.113 215.586 311.979 216.177 313.892 216.71C369.194 231.968 438.42 197.39 484.308 169.12" stroke="white" stroke-opacity="0.07" stroke-width="0.63587" stroke-miterlimit="10"/>
<path d="M-80.3711 166.092C-37.7669 186.162 17.0522 206.058 64.9215 195.702C81.9012 192.028 94.7789 186.227 106.116 176.724C114.318 169.853 121.367 161.44 128.163 152.189C151.39 120.579 162.57 90.8486 185.976 90.9463C229.121 91.1267 232.123 193.076 304.09 218.876C305.946 219.546 307.848 220.164 309.794 220.73C365.805 236.889 436.888 201.643 483.97 172.912" stroke="white" stroke-opacity="0.07" stroke-width="0.63587" stroke-miterlimit="10"/>
<path d="M-82.7109 169.635C-42.8526 188.944 13.7181 209.467 62.7023 195.543C136.546 174.549 142.935 89.5321 181.968 90.026C226.463 90.5886 227.373 201.191 305.696 224.75C362.413 241.81 435.359 205.894 483.635 176.701" stroke="white" stroke-opacity="0.07" stroke-width="0.63587" stroke-miterlimit="10"/>
</g>
</svg>
